<?xml version="1.0" encoding="utf-8"?>
<!-- Generator: Adobe Illustrator 23.0.6, SVG Export Plug-In . SVG Version: 6.00 Build 0)  -->
<svg version="1.1" id="Capa_1" xmlns="http://www.w3.org/2000/svg" xmlns:xlink="http://www.w3.org/1999/xlink" x="0px" y="0px"
	 viewBox="0 0 718 170" style="enable-background:new 0 0 718 170;" xml:space="preserve">
<style type="text/css">
	.st0{fill:#222223;}
	.st1{fill:#D77E22;}
	.st2{fill:#63ACE9;}
	.st3{fill:#A0CC37;}
</style>
<g>
	<g>
		<path class="st0" d="M72.43,151.13l-8.87,18.19c-25.53-3.26-39.62-17.91-44.94-26.55l0.23,22.81c0,1.84-0.94,2.78-2.78,2.78H3.03
			c-2.1,0-3.03-0.94-3.03-2.78v-54.43c0-1.87,1.16-3.03,3.03-3.03h14.65c1.64,0,2.81,1.16,2.81,3.03v4.87
			c0,3.49,12.33,35.13,49.76,35.13C70.99,151.16,71.69,151.16,72.43,151.13z"/>
		<path class="st0" d="M123.98,3.94v41.54l-5.84,11.96h-11.62c-1.84,0-2.78-0.93-2.78-2.8v-6.49c0-9.55-10.94-29.07-42.11-29.07
			c-20.91,0-34.18,11.16-34.18,26.04c0,20.31,26.5,25.44,52.88,32.75c8.25,2.29,16.49,4.79,23.92,8.05l-9.07,18.59
			c-21.74-11.56-64.44-13-82.09-35.16C8.1,63.13,5.13,55.28,5.13,45.11C5.13,19.75,25.59,0,59.54,0c23.72,0,37.6,7.96,45.79,18.02
			c0.11,0.11,0.2,0.23,0.28,0.34v-0.34l-0.48-14.08c0-1.87,1.16-2.78,3.03-2.78h13.04C123.04,1.16,123.98,2.07,123.98,3.94z"/>
	</g>
	<path class="st0" d="M226.7,4.16v50.72c0,1.84-1.16,3-3.03,3h-14.65c-1.84,0-2.78-1.16-2.78-3v-2.1
		c0-12.32-20.01-33.72-49.31-33.72c-1.81,0-3.63,0.08-5.44,0.28l9.38-19.21c27.29,1.53,41.09,15.3,47.21,24.73l-0.23-20.71
		c-0.23-1.84,0.94-2.78,2.81-2.78h13.01C225.54,1.39,226.7,2.32,226.7,4.16z"/>
	<path class="st0" d="M226.7,115.09v50.72c0,1.84-1.16,2.78-3.03,2.78h-13.01c-1.87,0-3.03-0.94-2.81-2.78l0.23-20.71
		c-6.49,10-21.62,24.91-52.31,24.91c-24.68,0-47.83-11.11-62.43-31.42l11.36-23.32c9.8,24.14,31.54,35.64,52.23,35.64
		c29.3,0,49.31-21.39,49.31-33.72v-2.1c0-1.84,0.94-3,2.78-3h14.65C225.54,112.09,226.7,113.25,226.7,115.09z"/>
	<g>
		<g>
			<g>
				<path class="st1" d="M90.02,48.15v7.76c-0.11,5.55-0.11,10.06-0.06,13.63c-2.58-0.79-5.07-1.47-7.37-2.13l-2.49-0.71
					c-1.22-0.34-2.44-0.68-3.66-0.99l-2.64-0.71c-23.27-6.29-37.41-10.77-37.41-19.89c0-8.78,9.18-14.71,22.87-14.71
					C82.74,30.41,90.02,43.42,90.02,48.15z"/>
			</g>
		</g>
	</g>
	<g>
		<g>
			<g>
				<path class="st2" d="M89.69,115.77l-11.28,23.15c-3.71,0.71-7.42,0.91-10.51,0.91c-17.23,0-27.37-8.36-32.82-15.38
					c-3.63-4.65-5.67-10.37-5.92-16.55c-0.17-5.13-0.4-9.21-0.62-12.61c10.26,4.39,21.37,7.34,31.45,10.03
					C73.42,108.94,83.91,112,89.69,115.77z"/>
			</g>
		</g>
	</g>
	<g>
		<g>
			<g>
				<path class="st3" d="M200.66,84.63v0.71c0,7.85-1.08,15.1-3.17,21.56c-0.62,1.93-1.36,3.88-2.24,5.84
					c-7.45,16.32-22.27,26.35-39.56,26.8c-17.43-0.45-32.28-10.48-39.7-26.8c-0.88-1.96-1.64-3.91-2.27-5.81
					c-0.68-2.13-1.25-4.34-1.73-6.63l33.41-68.42v-0.03c3.26-0.85,6.66-1.33,10.14-1.42c17.43,0.45,32.28,10.48,39.7,26.83
					c0.79,1.7,1.5,3.54,2.24,5.78C199.58,69.5,200.66,76.78,200.66,84.63z"/>
			</g>
		</g>
	</g>
	<path class="st0" d="M325.07,16.69c-4.33-1.4-8.03-2.09-11.11-2.09c-2.94,0-5.26,0.54-6.98,1.61c-1.72,1.07-2.58,2.65-2.58,4.72
		c0,2.65,1.23,4.67,3.7,6.07c2.47,1.4,6.28,2.84,11.43,4.35c5.15,1.5,9.39,3.01,12.72,4.51c3.33,1.5,6.17,3.76,8.53,6.76
		c2.36,3.01,3.54,6.98,3.54,11.92c0,4.8-1.27,8.93-3.81,12.4c-2.54,3.47-6.03,6.1-10.47,7.89c-4.44,1.79-9.48,2.68-15.14,2.68
		c-6.08,0-12.06-1.07-17.93-3.22c-5.87-2.15-10.95-5.08-15.24-8.8l6.76-13.85c3.79,3.43,8.16,6.19,13.1,8.27
		c4.94,2.08,9.45,3.11,13.53,3.11c3.51,0,6.24-0.64,8.21-1.93c1.97-1.29,2.95-3.15,2.95-5.58c0-1.93-0.66-3.52-1.99-4.78
		c-1.33-1.25-3.01-2.27-5.05-3.06c-2.04-0.79-4.85-1.68-8.43-2.68c-5.15-1.43-9.36-2.86-12.61-4.29c-3.26-1.43-6.07-3.61-8.43-6.55
		c-2.36-2.93-3.54-6.83-3.54-11.7c0-4.51,1.22-8.46,3.65-11.86c2.43-3.4,5.83-6.01,10.2-7.84C304.47,0.91,309.56,0,315.35,0
		c5.15,0,10.23,0.75,15.24,2.25c5.01,1.5,9.45,3.51,13.31,6.01l-6.55,14.06C333.49,19.97,329.4,18.09,325.07,16.69z"/>
	<path class="st0" d="M411.32,76.54l-5.9-14.6h-34.78l-5.9,14.6h-17.5L379.87,1.4h17.5l32.1,75.14H411.32z M376.22,48.31h23.72
		l-11.81-29.2L376.22,48.31z"/>
	<path class="st0" d="M489.25,1.4h16.1v75.14H489.9l-36.39-48.31v48.31H437.3V1.4h15.46l36.5,48.52V1.4z"/>
	<path class="st0" d="M327.42,109.94c-3.47-1.75-6.96-2.63-10.47-2.63c-4.22,0-8.09,1.04-11.59,3.11c-3.51,2.08-6.26,4.9-8.27,8.48
		c-2,3.58-3.01,7.55-3.01,11.92c0,4.37,1,8.36,3.01,11.97c2,3.61,4.76,6.48,8.27,8.59c3.51,2.11,7.37,3.17,11.59,3.17
		c3.36,0,6.78-0.8,10.25-2.41c3.47-1.61,6.56-3.77,9.29-6.49l9.98,10.84c-4.01,4.15-8.71,7.44-14.12,9.88
		c-5.4,2.43-10.83,3.65-16.26,3.65c-7.37,0-14.06-1.7-20.07-5.1c-6.01-3.4-10.73-8.07-14.17-14.01c-3.43-5.94-5.15-12.56-5.15-19.86
		c0-7.23,1.75-13.78,5.26-19.64c3.51-5.87,8.32-10.48,14.44-13.85c6.12-3.36,12.9-5.05,20.34-5.05c5.44,0,10.81,1.13,16.1,3.38
		c5.3,2.25,9.8,5.31,13.53,9.18l-9.88,12.13C333.92,114.11,330.9,111.69,327.42,109.94z"/>
	<path class="st0" d="M411.32,168.82l-5.9-14.6h-34.78l-5.9,14.6h-17.5l32.63-75.14h17.5l32.1,75.14H411.32z M376.21,140.59h23.72
		l-11.81-29.2L376.21,140.59z"/>
	<path class="st0" d="M483.45,168.82l-11.92-21.47h-1.61h-15.67v21.47h-16.96V93.68h32.63c9.8,0,17.39,2.27,22.76,6.82
		c5.37,4.55,8.05,10.97,8.05,19.27c0,5.8-1.2,10.75-3.6,14.87c-2.4,4.12-5.89,7.25-10.47,9.39l15.99,24.8H483.45z M454.25,133.18
		h15.67c4.72,0,8.35-1.09,10.9-3.27c2.54-2.18,3.81-5.38,3.81-9.61c0-4.15-1.27-7.28-3.81-9.39c-2.54-2.11-6.17-3.17-10.9-3.17
		h-15.67V133.18z"/>
	<path class="st0" d="M515.01,93.68h16.96v60.33h32.2v14.81h-49.17V93.68z"/>
	<path class="st0" d="M629.77,97.54c6.15,3.36,11,8,14.55,13.9c3.54,5.9,5.31,12.47,5.31,19.7c0,7.23-1.77,13.81-5.31,19.75
		c-3.54,5.94-8.39,10.61-14.55,14.01c-6.16,3.4-12.99,5.1-20.5,5.1c-7.51,0-14.35-1.7-20.5-5.1c-6.16-3.4-11-8.05-14.55-13.95
		c-3.54-5.9-5.31-12.51-5.31-19.81c0-7.23,1.77-13.79,5.31-19.7c3.54-5.9,8.37-10.54,14.49-13.9c6.12-3.36,12.97-5.05,20.56-5.05
		C616.78,92.49,623.61,94.18,629.77,97.54z M602.6,108.29c-5.89,2.09-10.28,5.7-13.2,10.83c-2.08,3.65-3.11,7.66-3.11,12.02
		c0,4.44,1.06,8.48,3.17,12.13c2.95,5.1,7.3,8.73,13.04,10.9c0.56,0.21,1.14,0.38,1.72,0.49c6.23,1.21,11.79,0.33,16.69-2.64
		c3.47-2.11,6.23-5.01,8.27-8.69c2.04-3.69,3.06-7.75,3.06-12.18c0-4.36-1.02-8.37-3.06-12.02c-2.04-3.65-4.8-6.53-8.27-8.64
		c-4.85-2.95-10.35-3.84-16.52-2.67C603.79,107.92,603.18,108.08,602.6,108.29z"/>
	<path class="st0" d="M697.99,108.97c-4.33-1.4-8.04-2.09-11.11-2.09c-2.94,0-5.26,0.54-6.98,1.61s-2.58,2.65-2.58,4.72
		c0,2.65,1.23,4.67,3.7,6.07c2.47,1.4,6.28,2.84,11.43,4.35c5.15,1.5,9.39,3.01,12.72,4.51c3.33,1.5,6.17,3.76,8.53,6.76
		c2.36,3.01,3.54,6.98,3.54,11.92c0,4.8-1.27,8.93-3.81,12.4c-2.54,3.47-6.03,6.1-10.47,7.89c-4.44,1.79-9.48,2.68-15.14,2.68
		c-6.08,0-12.06-1.07-17.93-3.22c-5.87-2.15-10.95-5.08-15.24-8.8l6.76-13.85c3.79,3.43,8.16,6.19,13.1,8.27
		c4.94,2.08,9.45,3.11,13.53,3.11c3.51,0,6.24-0.64,8.21-1.93c1.97-1.29,2.95-3.15,2.95-5.58c0-1.93-0.66-3.52-1.99-4.78
		c-1.32-1.25-3.01-2.27-5.04-3.06c-2.04-0.79-4.85-1.68-8.43-2.68c-5.15-1.43-9.36-2.86-12.61-4.29c-3.26-1.43-6.07-3.61-8.43-6.55
		c-2.36-2.93-3.54-6.83-3.54-11.7c0-4.51,1.22-8.46,3.65-11.86c2.43-3.4,5.83-6.01,10.2-7.84c4.36-1.82,9.45-2.74,15.24-2.74
		c5.15,0,10.23,0.75,15.24,2.25c5.01,1.5,9.45,3.51,13.31,6.01l-6.55,14.06C706.41,112.25,702.32,110.37,697.99,108.97z"/>
</g>
</svg>
