<svg xmlns="http://www.w3.org/2000/svg" viewBox="0 0 860.7 323.03"><defs><style>.cls-1{isolation:isolate;}.cls-2{fill:#fff;}.cls-3{fill:#00e9d3;}.cls-4{fill:#ff4d36;}.cls-5{fill:#fdcf02;}.cls-6{fill:#7474e0;}.cls-7{fill:#b3b7fd;}.cls-8{fill:#9292f7;}.cls-9{fill:#adc542;}.cls-10{opacity:0.35;mix-blend-mode:multiply;}.cls-11{fill:#88ed88;}.cls-12{fill:#4e01d2;}.cls-13{fill:#e1e3f9;}.cls-14{fill:#e49360;}.cls-15{fill:#1a1b1e;}.cls-16{fill:#292c30;}.cls-17{fill:#c6cecb;}.cls-18{fill:#e69560;}.cls-19,.cls-20{opacity:0.2;mix-blend-mode:overlay;}.cls-20{fill:red;}.cls-21{fill:#ebebeb;}.cls-22{fill:#1c2127;}.cls-23{fill:#003874;}.cls-24{fill:#003c82;}.cls-25{fill:#01021f;}.cls-26{fill:#ffa675;}.cls-27{fill:#1c1c1e;}.cls-28{fill:#f07f0b;}.cls-29{fill:#14adeb;}.cls-30{fill:#8acc19;}.cls-31{fill:#d1dcdf;}.cls-32{fill:#401202;}</style></defs><title>sample</title><g class="cls-1"><g id="Capa_1" data-name="Capa 1"><path class="cls-2" d="M448,115.67c0,11.43,9.62,20.71,21.48,20.71s21.47-9.28,21.47-20.71S481.29,95,469.44,95,448,104.23,448,115.67Z" transform="translate(-10.76 -94.96)"/><path class="cls-3" d="M469.44,100a44,44,0,0,0-1.35,7.86,76.5,76.5,0,0,0-.31,7.86l1.66-1.6c-2.4,0-4.8.13-7.2.39a46.15,46.15,0,0,0-7.19,1.21,47.36,47.36,0,0,0,7.19,1.21c2.4.26,4.8.35,7.2.38l1.63,0,0-1.62a76.5,76.5,0,0,0-.31-7.86A44.87,44.87,0,0,0,469.44,100Z" transform="translate(-10.76 -94.96)"/><ellipse class="cls-2" cx="832.54" cy="91.36" rx="28.16" ry="27.16"/><path class="cls-4" d="M844,191.19l7.91,13.13a2.08,2.08,0,0,0,2.78.71,1.93,1.93,0,0,0,.74-2.68l-7.91-13.13a13.07,13.07,0,0,0,3.37-17.15,14.2,14.2,0,0,0-19-4.85,13.16,13.16,0,0,0-5,18.31A14.12,14.12,0,0,0,844,191.19Zm-13.61-7.63a9.29,9.29,0,0,1,3.56-12.94,10,10,0,0,1,13.42,3.43A9.3,9.3,0,0,1,843.79,187,10,10,0,0,1,830.36,183.56Z" transform="translate(-10.76 -94.96)"/><path class="cls-2" d="M147.14,132.4c0,16.53,13.89,29.93,31,29.93s31-13.4,31-29.93-13.89-29.93-31-29.93S147.14,115.87,147.14,132.4Z" transform="translate(-10.76 -94.96)"/><path class="cls-5" d="M171,143.45v1.62h-.36v6.71h15v-6.71h-.36v-1.61a15.68,15.68,0,0,1,4.06-10,13.39,13.39,0,0,0,3-11.2A14.21,14.21,0,0,0,180,110.86a14.86,14.86,0,0,0-11.38,3.39,13.72,13.72,0,0,0-4.87,10.43,13.54,13.54,0,0,0,3.26,8.77A15.51,15.51,0,0,1,171,143.45Zm11.32,0v.59h-1.46c1.47-4.89,3.13-11.58,1.61-12.8a2,2,0,0,0-2.05-.27l-.24.11a2.15,2.15,0,0,0-1.87-1h0a2.64,2.64,0,0,0-2,1,2.21,2.21,0,0,0-1.55-.23,1.73,1.73,0,0,0-1,.82c-1.23,2.15.67,8.95,1.76,12.4H174v-.6a18.25,18.25,0,0,0-4.7-11.83,10.58,10.58,0,0,1-2.59-6.94,10.88,10.88,0,0,1,3.87-8.27,11.69,11.69,0,0,1,9-2.68,11.4,11.4,0,0,1,9.83,9,10.62,10.62,0,0,1-2.38,8.88A18.43,18.43,0,0,0,182.34,143.46Zm-5.23.59c-1.38-4.29-2.86-10.26-2-11.77a.25.25,0,0,1,.13-.14,1.23,1.23,0,0,1,.51.2,2.22,2.22,0,0,0,.39,2,1.28,1.28,0,0,0,2.07-1.38,3.32,3.32,0,0,0-.71-1.07,1.13,1.13,0,0,1,.88-.52c.18,0,.36.2.46.32a2.07,2.07,0,0,1,.19.32,2.48,2.48,0,0,0-.62,1.42,1,1,0,0,0,.65,1,1.23,1.23,0,0,0,1.32-.15,2,2,0,0,0,.36-1.95,1.17,1.17,0,0,1,.27-.15c.29-.12.38,0,.46,0,.63.81-.59,6.47-2.18,11.78Z" transform="translate(-10.76 -94.96)"/><path class="cls-6" d="M161.2,273.42c-26.78-26-7.94-55.07-26.95-72.82-6.76-6.31-16.63-7.1-25.14-4.43-38.79,12.15-66,52.92-66,94.58,0,23.6,6.08,59.38,20.72,76.36H226.58c9.82-12.46,19.66-34.21,24-53.73C254.87,294.1,204.07,315.09,161.2,273.42Z" transform="translate(-10.76 -94.96)"/><path class="cls-7" d="M95.07,279.82c-15.91-23.54-14.95-66.61,11.36-82.76-37.36,13.15-63.29,53-63.29,93.69,0,23.6,6.08,59.38,20.72,76.36H226.58c10-9.93,20.22-34.66,24-53.73C233.29,319.52,134.65,338.42,95.07,279.82Z" transform="translate(-10.76 -94.96)"/><rect class="cls-8" x="655.16" y="128.81" width="123.48" height="143.34" rx="1.93"/><rect class="cls-7" x="663.19" y="137.57" width="107.41" height="38.28" rx="1.93"/><rect class="cls-7" x="663.19" y="181.34" width="107.41" height="38.28" rx="1.93"/><rect class="cls-7" x="663.19" y="225.11" width="107.41" height="38.28" rx="1.93"/><path class="cls-9" d="M750.44,341c4.85-11.83,9.74-23.79,11.74-36.42s.87-26.17-5.7-37.15a13.78,13.78,0,0,0-3.32-4,5.9,5.9,0,0,0-4.93-1.18c-2.15.58-3.56,2.62-4.54,4.61-5.31,10.75-3.89,23.57-.93,35.19s7.35,23.06,7.66,35" transform="translate(-10.76 -94.96)"/><g class="cls-10"><path class="cls-11" d="M752.05,339a1.19,1.19,0,0,0,1.19-1.12,308.69,308.69,0,0,0-2.76-64.29,1.19,1.19,0,1,0-2.36.35,306.67,306.67,0,0,1,2.74,63.79A1.2,1.2,0,0,0,752,339Z" transform="translate(-10.76 -94.96)"/></g><path class="cls-9" d="M754,341.07c-2.86-8.25-2.22-17.23-2.54-26s-2-18.08-8.21-24.2a13.89,13.89,0,0,0-6.28-3.75,8.54,8.54,0,0,0-7.06,1.21c-2.71,2-3.62,5.66-3.8,9-.52,9.49,3.28,18.82,8.79,26.56s12.69,14.14,19.81,20.44" transform="translate(-10.76 -94.96)"/><g class="cls-10"><path class="cls-11" d="M753.56,343.4a1.18,1.18,0,0,0,1-.26,1.19,1.19,0,0,0,.13-1.68A83.14,83.14,0,0,1,735.34,296a1.2,1.2,0,1,0-2.38.23A85.62,85.62,0,0,0,752.91,343,1.17,1.17,0,0,0,753.56,343.4Z" transform="translate(-10.76 -94.96)"/></g><path class="cls-9" d="M753,341.87c4.69-1.44,8.59-4.71,12-8.25a70.67,70.67,0,0,0,15-24,26.45,26.45,0,0,0,2-9,11.86,11.86,0,0,0-3.06-8.45c-3.24-3.29-8.74-3.63-12.87-1.55s-7,6.16-8.55,10.51-2,9-2.46,13.61l-2.28,24" transform="translate(-10.76 -94.96)"/><g class="cls-10"><path class="cls-11" d="M752,339.39a1.17,1.17,0,0,0,.82-.33,68.52,68.52,0,0,0,19.92-36.63,1.2,1.2,0,0,0-2.35-.45,66.18,66.18,0,0,1-19.21,35.35,1.19,1.19,0,0,0,.82,2.06Z" transform="translate(-10.76 -94.96)"/></g><polygon class="cls-12" points="732.26 272.26 754.33 272.26 762.25 241.98 724.33 241.98 732.26 272.26"/><rect class="cls-8" x="733.49" y="333.78" width="41.13" height="9.94" transform="translate(1497.34 582.54) rotate(180)"/><path class="cls-4" d="M46.61,254.59a35.85,35.85,0,0,0-35.85,35.85c0,6.17,2.53,13,4.3,17.05,5.42,12.26,20.06,41.69,27.68,56.89a5.07,5.07,0,0,0,9.15-.15c6.94-15.15,20.25-44.15,26.26-56.74a39.37,39.37,0,0,0,4.31-17.05A35.85,35.85,0,0,0,46.61,254.59Zm0,52.84a17,17,0,1,1,17-17A17,17,0,0,1,46.61,307.43Z" transform="translate(-10.76 -94.96)"/><path class="cls-13" d="M708.27,195l0-6.23c0-9.6-3.79-19.33-11-28.13a38.47,38.47,0,0,1-8.12-31.37,39,39,0,1,1,68.65,31.48c-7.11,8.65-10.88,18.34-10.88,28l.09,6.24Z" transform="translate(-10.76 -94.96)"/><path class="cls-2" d="M733.88,193.09c0-.92.1-1.85.12-2.77s8.88-30.52,5.55-36.53a4.65,4.65,0,0,0-2.76-2.3,5.71,5.71,0,0,0-4.19.64,6.89,6.89,0,0,0-5.35-2.83h0a5.72,5.72,0,0,0-5,2.91,5.86,5.86,0,0,0-.67-.32,5.24,5.24,0,0,0-5.54.76c-4,3.41,5.06,36.48,5.06,37.3v3.14Zm-15.15-37.58c.21-.16.46-.4,1.24-.06a4.11,4.11,0,0,1,.73.43c-.43,2-.39,4.25,1,5.47a3.21,3.21,0,0,0,3.55.43,3,3,0,0,0,1.75-2.89,7.24,7.24,0,0,0-1.67-4,6.14,6.14,0,0,1,.53-.89c.25-.34.74-.91,1.23-.89a2.94,2.94,0,0,1,2.36,1.46,8.93,8.93,0,0,0-1.89,3,3.41,3.41,0,0,0,2.28,4.66,3.24,3.24,0,0,0,3.3-.79c1.3-1.31,1.5-3.64,1.06-5.74a3.34,3.34,0,0,1,1.38-.57.84.84,0,0,1,.35.4c2.34,4.21-1.66,20.95-5.39,33h-5.91C720.31,173.66,717,157.77,718.73,155.51Z" transform="translate(-10.76 -94.96)"/><path class="cls-12" d="M704.28,198.22h0a5.13,5.13,0,0,0,5.13,5.13h36.48a5.13,5.13,0,0,0,5.13-5.13h0a5.13,5.13,0,0,0-5.13-5.13H709.41A5.13,5.13,0,0,0,704.28,198.22Z" transform="translate(-10.76 -94.96)"/><path class="cls-12" d="M704.28,208.48h0a5.14,5.14,0,0,0,5.13,5.14h36.48a5.14,5.14,0,0,0,5.13-5.14h0a5.13,5.13,0,0,0-5.13-5.13H709.41A5.13,5.13,0,0,0,704.28,208.48Z" transform="translate(-10.76 -94.96)"/><path class="cls-12" d="M704.28,218.75h0a5.13,5.13,0,0,0,5.13,5.13h36.48a5.13,5.13,0,0,0,5.13-5.13h0a5.13,5.13,0,0,0-5.13-5.13H709.41A5.13,5.13,0,0,0,704.28,218.75Z" transform="translate(-10.76 -94.96)"/><path class="cls-14" d="M521.17,389.12s-5,3.18-8.82,3.92l-5.76,1.14a12.82,12.82,0,0,0-4.5,2.69L490.36,407.7a10,10,0,0,0-1,5.21c.37,1.9,2.82,3.18,3.33,2.9l16-9,.09-.05,16.68-7.69a1.16,1.16,0,0,0,.58-1.53l-3.37-7.78A1.17,1.17,0,0,0,521.17,389.12Z" transform="translate(-10.76 -94.96)"/><path class="cls-15" d="M613.6,335.53l-57.3,8.94.07,33.06,60.62-.12s11.5,1.15,20.94-1.15c20.36-5,18.12-30.47,5.44-37.49S617.68,335,613.6,335.53Z" transform="translate(-10.76 -94.96)"/><path class="cls-16" d="M612.51,342.14l-93.26,46.08,3,12.58,104.65-20.11s10.33-2.68,17.62-7.75c14.31-9.95,8.07-32.24-5.58-35.26C627,335,620.44,339.26,612.51,342.14Z" transform="translate(-10.76 -94.96)"/><path class="cls-17" d="M506.37,408.22a36.89,36.89,0,0,1,4.49-2.68,15.06,15.06,0,0,0-2.82-8,26.31,26.31,0,0,1,7.49-5.61c-6,.22-8.74-2.38-12.9,1.09s-2.91,6.28-6.66,6.71a8.32,8.32,0,0,0-7.49,7.15c-.62,4.11,1,10.39,5.62,10S504.5,409.74,506.37,408.22Z" transform="translate(-10.76 -94.96)"/><path class="cls-14" d="M591.56,389.33s5,3.19,8.81,3.93l5.77,1.13a12.85,12.85,0,0,1,4.5,2.7l11.73,10.82a9.93,9.93,0,0,1,1,5.21c-.36,1.9-2.81,3.19-3.32,2.9l-16-9-.08,0-16.68-7.7a1.16,1.16,0,0,1-.59-1.52l3.38-7.78A1.16,1.16,0,0,1,591.56,389.33Z" transform="translate(-10.76 -94.96)"/><path class="cls-15" d="M499.13,335.74l57.3,8.94-.07,33.07-60.63-.13s-11.5,1.15-20.94-1.15c-20.35-5-18.12-30.47-5.43-37.49S495,335.19,499.13,335.74Z" transform="translate(-10.76 -94.96)"/><path class="cls-16" d="M500.21,342.36l93.27,46.08-3,12.57L485.8,380.91s-10.32-2.68-17.62-7.76c-14.3-9.95-8.07-32.24,5.59-35.26C485.71,335.25,492.28,339.47,500.21,342.36Z" transform="translate(-10.76 -94.96)"/><path class="cls-17" d="M608,409.31a38,38,0,0,0-4.49-2.69,15,15,0,0,1,2.83-7.94,26.08,26.08,0,0,0-7.49-5.61c6,.22,8.74-2.38,12.9,1.08s2.91,6.28,6.65,6.72a8.3,8.3,0,0,1,7.49,7.14c.63,4.12-1,10.4-5.61,10S609.84,410.83,608,409.31Z" transform="translate(-10.76 -94.96)"/><path class="cls-18" d="M488.88,343.56l25.73-21.33a7.86,7.86,0,0,1,11.16,1.15l2.14,2.69a7.77,7.77,0,0,1-1.77,11.31L498.27,356a7.87,7.87,0,0,1-9.39-.49h0A7.76,7.76,0,0,1,488.88,343.56Z" transform="translate(-10.76 -94.96)"/><path class="cls-18" d="M521.84,275.92l-10.1,49.28c-1.16,5.66,1.63,11.41,6.22,12.82l1.82.56c4.72,1.45,9.46-2.24,10.43-8.12l8.28-49.84c1.08-6.54-3-12.67-8.37-12.67h0C526.21,268,522.8,271.23,521.84,275.92Z" transform="translate(-10.76 -94.96)"/><path class="cls-4" d="M550.41,297.62l6.21-19L541.93,236s-17.5,4.32-22,32.11-4.5,27.07-4.5,27.07Z" transform="translate(-10.76 -94.96)"/><path class="cls-19" d="M528.74,301.37c-6.65-11.83-4.17-40.24,5.22-48,.23,1.56,1.68,32.12,1.68,37,0,14.09-3.77,28-5,38.26-1.24,4.78-2.27-19-1.17-23.79A4.76,4.76,0,0,0,528.74,301.37Z" transform="translate(-10.76 -94.96)"/><path class="cls-4" d="M540.31,236.55c2,.7-12.29,26.6-12.92,41.55-.68,15.93,8.31,23.09,8.31,23.09L537.54,316l-7.45,18.64c-1,2.55-5.34,9.29,1.53,9.09l29.2-1,36.51-3.16a5.58,5.58,0,0,0,2.7-7.25L592.94,316,604,280s-3.69-4.62-5.54-16.62-.92-25.85-.92-25.85l-14.77-5.54h-27.7Z" transform="translate(-10.76 -94.96)"/><path class="cls-20" d="M584.71,275.17l-3.16,21.88c-.55,3.83-1.13,7.74-2.9,11.18-2.16,4.2-.86,9.35-4.58,12.26a89.55,89.55,0,0,1-11.58,7.94c-5.17,2.86-10.78,4.84-16.12,7.39s-10.53,5.75-14.09,10.47c2.63,2.67,6.85,2.74,10.59,2.48,16.63-1.15,28-7.44,43.09-14.53,2.72-1.28,5.55-2.8,7-5.44a12.43,12.43,0,0,0,1.25-4.54,63.93,63.93,0,0,0,.36-8.53c-.15-15.37-2.11-30.65-4.06-45.89-.19-1.51-.68-9.28-3.43-5.68C585.17,266.64,585.14,272.17,584.71,275.17Z" transform="translate(-10.76 -94.96)"/><path class="cls-21" d="M545.61,379.79l40.61-16.26a3.88,3.88,0,0,0,2.42-3.78h0a3.86,3.86,0,0,0-3.17-3.59L528.9,346l-53.37,19.43Z" transform="translate(-10.76 -94.96)"/><path class="cls-18" d="M538.92,345.42l-17,2.46a4,4,0,0,0-3.29,2.06l-4.39,8.1a3.59,3.59,0,0,0,3.12,5.3h0a3.6,3.6,0,0,0,3.26-2l2-4.08s11.9,7.38,17.88-2.08Z" transform="translate(-10.76 -94.96)"/><path class="cls-18" d="M538.07,345.62,591.5,331a10.36,10.36,0,0,1,12.14,5.34l.25.55c2.78,5.95-1.38,12.74-8.23,13.42l-55.85,5.56Z" transform="translate(-10.76 -94.96)"/><path class="cls-18" d="M609.49,264.26l-3.35,70.36C605.6,344,604,347.28,599.66,349l-.54.22c-5.85,2.37-11.58-4.28-11.34-13.15l2-72.27Z" transform="translate(-10.76 -94.96)"/><path class="cls-2" d="M520.57,339.29l25,40.5-70.08-14.36-29.59-42.18a2.33,2.33,0,0,1,2.41-3.62l64.5,14.18A12.17,12.17,0,0,1,520.57,339.29Z" transform="translate(-10.76 -94.96)"/><path class="cls-4" d="M586,294.36,585.8,265l11.73-27.57s14.28,8.53,13.8,33.63c-.35,18.61.32,8-1.06,23.31Z" transform="translate(-10.76 -94.96)"/><path class="cls-22" d="M534.58,215.67c2.2-9.87,4.09-23.26,3.76-29h0l16.92-10s7.51,22.21,8.69,37.07l10.93-1.69-3-31.5-4.34-23.13c27.84,2,35.24,34.15,35.24,34.15,4.06,21.17,4.24,30.49-8.44,34.15h0l-.51.12c-.56.15-1.11.31-1.71.44-1,.21-1.88.37-2.73.49a179,179,0,0,1-38.93,3.12l-.74,0h-.31C541.13,229.32,532.66,224.31,534.58,215.67Z" transform="translate(-10.76 -94.96)"/><path class="cls-22" d="M538.34,186.67c1,15.51,13.88,23.9,29.73,22.91s26.48-10.41,25.51-25.92S579,156.6,563.13,157.35C541.27,158.39,537.38,171.15,538.34,186.67Z" transform="translate(-10.76 -94.96)"/><path class="cls-18" d="M550.74,233.16c2,3.29,6.56,7.3,18.17,7.66,11.19.33,19.37-3.82,22-6.11a35.37,35.37,0,0,1-8.54-9.37,34.34,34.34,0,0,1-4.72-21.53L576.09,192a21.85,21.85,0,0,0-12.16-5.78c-8.91-1-18.22,4.23-18,7.85.12,2.24,4,1.53,8.42,7.05,1.49,1.84,2.83,5.31,3.85,10.47.12.61,3.37,9.55-1.59,16.06A23.22,23.22,0,0,1,550.74,233.16Z" transform="translate(-10.76 -94.96)"/><path class="cls-19" d="M561.43,191.39c-5.55-1.29-9.16,1.41-11.37,5.85a17.3,17.3,0,0,1,4.27,3.87c1.49,1.84,2.83,5.31,3.85,10.47.1.49,2.2,6.34.47,12,7-1.13,14-8.08,14-15.82C572.72,198.76,568.4,193,561.43,191.39Z" transform="translate(-10.76 -94.96)"/><path class="cls-18" d="M574.34,194.64c-.64,3.36-1.57,8,1,9s7.86-2.64,9.26-5.49c1.72-3.52,1.16-8.06-1.76-9.06C580.18,188.21,575,191.1,574.34,194.64Z" transform="translate(-10.76 -94.96)"/><path class="cls-18" d="M577.1,193.59c-.17,13.37-12.56,25.26-22.72,23.59-9.07-1.49-11.07-10.49-9.88-23.07,1.35-14.27,6.38-27.66,18.33-24.58C571.78,171.84,577.27,180.3,577.1,193.59Z" transform="translate(-10.76 -94.96)"/><path class="cls-22" d="M545.42,165.8s8.11,19,35.1,13.65c0,0,7.74,2.64,5.91-4.63s-15.77-17.22-15.77-17.22L558,159.1Z" transform="translate(-10.76 -94.96)"/><path class="cls-22" d="M559.75,164.12s-15.74,5.12-14.86,18.41l-2.07-8.21,4.91-9.27,2.36-2.55,5.83-2.26Z" transform="translate(-10.76 -94.96)"/><circle class="cls-22" cx="554.85" cy="95.17" r="1.91"/><circle class="cls-22" cx="537.97" cy="94.19" r="1.91"/><rect class="cls-22" x="544.76" y="180.22" width="7.25" height="3.59" rx="1.78" transform="translate(1074.48 300.73) rotate(-176.66)"/><rect class="cls-22" x="562.94" y="181.18" width="7.25" height="3.59" rx="1.78" transform="translate(1110.74 303.7) rotate(-176.66)"/><path class="cls-2" d="M561.26,205.43,550,204.77c.23-.08.21,5.38,5.12,5.41C561,210.22,561.26,205.43,561.26,205.43Z" transform="translate(-10.76 -94.96)"/><path class="cls-19" d="M551.44,198.89c1.8-1.16,5-5.9,5-5.9s-.2,7.28,0,8C556.63,201.61,550.87,199.25,551.44,198.89Z" transform="translate(-10.76 -94.96)"/><path class="cls-14" d="M292.1,387.49s-5,3.19-8.81,3.93l-5.77,1.13a12.84,12.84,0,0,0-4.49,2.69L261.3,406.07a9.89,9.89,0,0,0-1,5.21c.37,1.9,2.82,3.19,3.32,2.9l16-9,.08,0,16.69-7.7a1.17,1.17,0,0,0,.58-1.52l-3.37-7.78A1.18,1.18,0,0,0,292.1,387.49Z" transform="translate(-10.76 -94.96)"/><path class="cls-23" d="M384.54,333.9l-57.3,8.94.07,33.07,60.62-.13s11.5,1.15,20.94-1.15c20.35-4.95,18.12-30.47,5.43-37.49S388.62,333.35,384.54,333.9Z" transform="translate(-10.76 -94.96)"/><path class="cls-24" d="M383.45,340.52,290.18,386.6l3,12.57,104.66-20.11s10.32-2.68,17.62-7.75c14.31-9.95,8.07-32.24-5.59-35.26C398,333.41,391.38,337.63,383.45,340.52Z" transform="translate(-10.76 -94.96)"/><path class="cls-25" d="M277.31,406.6a36.68,36.68,0,0,1,4.49-2.69,15.07,15.07,0,0,0-2.83-8,26.16,26.16,0,0,1,7.49-5.6c-6,.21-8.73-2.39-12.89,1.08s-2.92,6.28-6.66,6.71a8.31,8.31,0,0,0-7.49,7.15c-.63,4.11,1,10.39,5.62,10S275.44,408.11,277.31,406.6Z" transform="translate(-10.76 -94.96)"/><path class="cls-14" d="M362.5,387.71s5,3.18,8.81,3.92l5.77,1.13a12.72,12.72,0,0,1,4.49,2.7l11.73,10.82a9.91,9.91,0,0,1,1,5.21c-.37,1.9-2.82,3.19-3.32,2.91l-16-9-.08,0-16.69-7.69a1.17,1.17,0,0,1-.58-1.53l3.37-7.78A1.16,1.16,0,0,1,362.5,387.71Z" transform="translate(-10.76 -94.96)"/><path class="cls-23" d="M270.06,334.11l57.3,8.94-.07,33.07L266.67,376s-11.5,1.15-20.94-1.14c-20.35-5-18.12-30.48-5.43-37.49S266,333.56,270.06,334.11Z" transform="translate(-10.76 -94.96)"/><path class="cls-24" d="M271.15,340.73l93.27,46.08-3,12.57-104.66-20.1s-10.32-2.68-17.62-7.75c-14.31-10-8.07-32.24,5.59-35.27C256.64,333.62,263.22,337.84,271.15,340.73Z" transform="translate(-10.76 -94.96)"/><path class="cls-25" d="M378.91,407.68a36.89,36.89,0,0,0-4.49-2.68,15.06,15.06,0,0,1,2.82-7.95,26.19,26.19,0,0,0-7.48-5.61c6,.22,8.73-2.38,12.89,1.09s2.92,6.28,6.66,6.71a8.3,8.3,0,0,1,7.49,7.15c.62,4.11-1,10.39-5.62,10S380.78,409.2,378.91,407.68Z" transform="translate(-10.76 -94.96)"/><path class="cls-26" d="M397,338.36,372,317.69a7.62,7.62,0,0,0-10.82,1.11l-2.08,2.61a7.54,7.54,0,0,0,1.72,11l27,18.06A7.61,7.61,0,0,0,397,350h0A7.53,7.53,0,0,0,397,338.36Z" transform="translate(-10.76 -94.96)"/><path class="cls-26" d="M365,272.79l9.79,47.77c1.12,5.5-1.58,11.07-6,12.44l-1.76.54c-4.57,1.4-9.16-2.17-10.11-7.87l-8-48.32c-1.05-6.34,2.87-12.28,8.11-12.28h0C360.76,265.07,364.07,268.25,365,272.79Z" transform="translate(-10.76 -94.96)"/><path class="cls-5" d="M356.5,325.36l-11-51.39,0-39.88s17,4.19,21.32,31.14c3.22,19.91,7.58,44.37,9.66,55.87a10.7,10.7,0,0,1-4.19,10.51h0C366.1,336.19,358.21,332.89,356.5,325.36Z" transform="translate(-10.76 -94.96)"/><path class="cls-5" d="M359.72,331.53a4.7,4.7,0,0,0,.82.72l27.89,19.22a1.65,1.65,0,0,0,2.23-.4l7.16-11.1a1.43,1.43,0,0,0-.3-2l-24.44-19.55a1.68,1.68,0,0,0-1.76-.2l-10.63,5.1C357.2,325,355.34,326.59,359.72,331.53Z" transform="translate(-10.76 -94.96)"/><path class="cls-19" d="M357.74,299.1c7.52-10.52,4.22-41.09-5.21-48-.24,1.55-.22,31.69-.22,36.57-1.8,14.77,2.19,29.37,4.65,39,1.24,4.79,1.18-19.33.08-24.15A4.25,4.25,0,0,1,357.74,299.1Z" transform="translate(-10.76 -94.96)"/><path class="cls-5" d="M346.86,234.53c-2,.7,12.29,26.6,12.93,41.55.67,15.93-8.31,23.09-8.31,23.09l-1.85,14.77,7.46,18.64a5.58,5.58,0,0,1-2.35,6.87l-28.39,1.21-36.5-3.16a5.58,5.58,0,0,1-2.71-7.25l7.09-16.31-11.08-36s3.69-4.62,5.54-16.62.92-25.85.92-25.85l14.78-5.54h27.7Z" transform="translate(-10.76 -94.96)"/><path class="cls-2" d="M408.81,343.49l-.32-24.27c0-.69-.93-.91-2.05-.5l-57.76,21.22c-1.12.42-2,1.31-2,2l.32,24.27c0,.69.93.91,2,.5l57.76-21.22C407.92,345.07,408.82,344.18,408.81,343.49Z" transform="translate(-10.76 -94.96)"/><path class="cls-27" d="M402.59,338.86l-.29,0a1,1,0,0,1,.42-.59l-.36.14s-.05,0-.05,0v-.12a.07.07,0,0,1,0-.05l.86-.31s.05,0,.05,0v.14s0,0-.05.05l-.07,0c-.06,0-.55.33-.55.69Z" transform="translate(-10.76 -94.96)"/><path class="cls-27" d="M404.91,338.5l-.65.24-.19,0v-.12s0,0,0,0l.11,0a.69.69,0,0,0,.45-.57c0-.2-.18-.26-.42-.18s-.39.4-.5.7c0,.09-.08.19-.13.28l-.29,0c.18-.28.19-.7.54-1a1.35,1.35,0,0,1,.38-.21c.4-.15.71-.07.72.26a.73.73,0,0,1-.28.55h0l.22-.09s0,0,0,0v.12S404.94,338.49,404.91,338.5Z" transform="translate(-10.76 -94.96)"/><path class="cls-27" d="M404.92,339.49l-.79.3s-.05,0-.05,0v-.14a.05.05,0,0,1,0-.05h0a.91.91,0,0,0,.52-.67.07.07,0,0,0,0-.05l.31,0a.93.93,0,0,1-.39.6l.33-.13s0,0,0,0v.13S405,339.48,404.92,339.49Z" transform="translate(-10.76 -94.96)"/><path class="cls-27" d="M403.18,340.14l-.8.29s0,0,0,0v-.13s0,0,.05,0l.32-.12a.36.36,0,0,1-.4-.36,1.11,1.11,0,0,1,.49-.78l.37,0c-.38.24-.56.51-.55.71s.34.35.53.28h0s0,0,0,0v.14A.05.05,0,0,1,403.18,340.14Z" transform="translate(-10.76 -94.96)"/><path class="cls-28" d="M404.21,338.43l-.12.05a1.17,1.17,0,0,0-.21.08l0-.09v0l0,0v0c.09-.26.16-.42.3-.47s.24,0,.24.13A.46.46,0,0,1,404.21,338.43Z" transform="translate(-10.76 -94.96)"/><path class="cls-29" d="M403.15,338.82l-.37,0a.38.38,0,0,1,0-.1.6.6,0,0,1,.24-.41.93.93,0,0,1,.26-.15l.19-.08q-.09.19-.15.36A1.28,1.28,0,0,1,403.15,338.82Z" transform="translate(-10.76 -94.96)"/><path class="cls-30" d="M403.65,339.71h0a1.81,1.81,0,0,1-.34.1h-.09c-.26,0-.42-.06-.43-.23a.77.77,0,0,1,.42-.53l.09-.06.11-.05,1.08-.08h0a.29.29,0,0,1,0,.09c0,.17-.16.37-.42.54l-.09.05A2.16,2.16,0,0,1,403.65,339.71Z" transform="translate(-10.76 -94.96)"/><path class="cls-27" d="M404.74,340.52a.35.35,0,0,0,0-.12.06.06,0,0,0,0-.06h-.07l-.1.07a.64.64,0,0,0-.06.14,1,1,0,0,0-.07.15.6.6,0,0,1-.11.12.61.61,0,0,1-.18.1.39.39,0,0,1-.2,0,.17.17,0,0,1-.13-.05.25.25,0,0,1,0-.13.49.49,0,0,1,.05-.19.66.66,0,0,1,.14-.2l.21,0a.94.94,0,0,0-.12.18.26.26,0,0,0-.05.15.09.09,0,0,0,0,.07.1.1,0,0,0,.09,0,.18.18,0,0,0,.07-.05l.05-.06a1,1,0,0,0,0-.1.6.6,0,0,1,.07-.14.35.35,0,0,1,.1-.12.78.78,0,0,1,.18-.11l.19,0a.15.15,0,0,1,.12.05.21.21,0,0,1,.05.13.45.45,0,0,1,0,.16,1,1,0,0,1-.1.17l-.22,0A.85.85,0,0,0,404.74,340.52Z" transform="translate(-10.76 -94.96)"/><path class="cls-27" d="M403.81,341.69l.23-.14v-.33l-.23,0v-.17L405,341v.17l-1.18.75Zm.44-.5v.23l.46-.28Z" transform="translate(-10.76 -94.96)"/><path class="cls-27" d="M405,342v.15l-1.18.44v-.15l.75-.63-.76.28v-.16l1.18-.43v.15l-.76.63Z" transform="translate(-10.76 -94.96)"/><path class="cls-27" d="M403.27,341.08a.24.24,0,0,0,0-.12.11.11,0,0,0-.05-.09.25.25,0,0,0-.13,0,.46.46,0,0,0-.19,0,.66.66,0,0,0-.19.09.53.53,0,0,0-.13.13.2.2,0,0,0-.05.13.11.11,0,0,0,0,.09l.1.05-.17.16a.4.4,0,0,1-.16-.08.21.21,0,0,1-.05-.13.35.35,0,0,1,.07-.23,1.14,1.14,0,0,1,.22-.22,1.51,1.51,0,0,1,.31-.16,1,1,0,0,1,.31-.06.34.34,0,0,1,.22.06.17.17,0,0,1,.08.16.26.26,0,0,1-.05.18.73.73,0,0,1-.14.18l-.19,0Z" transform="translate(-10.76 -94.96)"/><path class="cls-27" d="M402.36,342.23l.22-.15v-.33l-.23,0v-.17l1.18-.12v.17l-1.18.74Zm.44-.51V342l.46-.28Z" transform="translate(-10.76 -94.96)"/><path class="cls-27" d="M402.36,342.92l.34-.24h0v-.15l-.34.12v-.16l1.18-.44v.32a.36.36,0,0,1-.11.25.65.65,0,0,1-.3.19.57.57,0,0,1-.24.05.16.16,0,0,1-.14,0l-.39.3Zm.56-.49v.15a.08.08,0,0,0,.06.09.22.22,0,0,0,.15,0,.38.38,0,0,0,.15-.09.19.19,0,0,0,0-.12v-.15Z" transform="translate(-10.76 -94.96)"/><path class="cls-27" d="M403.55,342.79V343l-.95.35v.31l-.24.09v-.48Z" transform="translate(-10.76 -94.96)"/><path class="cls-27" d="M403.5,343.92a.86.86,0,0,1-.21.22,1.14,1.14,0,0,1-.31.16.8.8,0,0,1-.31.07.39.39,0,0,1-.23-.06.21.21,0,0,1-.08-.17.46.46,0,0,1,.08-.23.77.77,0,0,1,.22-.22,1,1,0,0,1,.31-.16.76.76,0,0,1,.31-.07.36.36,0,0,1,.22.06.21.21,0,0,1,.08.17A.38.38,0,0,1,403.5,343.92Zm-.17-.2a.18.18,0,0,0-.17-.07l-.19,0-.19.1a.58.58,0,0,0-.17.19v0a.12.12,0,0,0,0,.15.25.25,0,0,0,.13,0,.79.79,0,0,0,.2,0l.19-.1.13-.13a.18.18,0,0,0,0-.18Z" transform="translate(-10.76 -94.96)"/><path class="cls-27" d="M403.33,344.64c0-.05,0-.09,0-.12s0,0,0-.06,0,0-.08,0a.16.16,0,0,0-.09.07l-.07.13a.52.52,0,0,1-.07.15.53.53,0,0,1-.1.12.68.68,0,0,1-.19.11.49.49,0,0,1-.2,0,.17.17,0,0,1-.12-.05.2.2,0,0,1,0-.13.38.38,0,0,1,0-.2,1.15,1.15,0,0,1,.14-.19l.22,0a1,1,0,0,0-.13.18.34.34,0,0,0,0,.14s0,.06,0,.07h.09l.08-.05.05-.06a.69.69,0,0,1,0-.1l.06-.15a.53.53,0,0,1,.1-.12.67.67,0,0,1,.19-.1.44.44,0,0,1,.19,0,.17.17,0,0,1,.12.05.18.18,0,0,1,0,.13.32.32,0,0,1,0,.16.51.51,0,0,1-.09.16l-.22,0A1.09,1.09,0,0,0,403.33,344.64Z" transform="translate(-10.76 -94.96)"/><polygon class="cls-31" points="386.78 246.33 386.63 234.66 388.76 233.88 388.91 245.54 386.78 246.33"/><polygon class="cls-31" points="382.43 241.45 382.3 231.63 383.9 231.04 384.03 240.86 382.43 241.45"/><polygon class="cls-31" points="378.84 253.56 378.57 233 379.64 232.61 379.9 253.17 378.84 253.56"/><polygon class="cls-31" points="375.64 254.74 375.37 234.17 376.44 233.78 376.71 254.35 375.64 254.74"/><polygon class="cls-31" points="372.37 250.08 372.17 235.35 373.24 234.96 373.43 249.69 372.37 250.08"/><polygon class="cls-31" points="367.48 244.95 367.38 237.11 368.98 236.52 369.08 244.36 367.48 244.95"/><polygon class="cls-31" points="363.91 259.05 363.64 238.48 364.71 238.09 364.98 258.66 363.91 259.05"/><polygon class="cls-31" points="360.72 260.22 360.45 239.66 361.51 239.27 361.78 259.83 360.72 260.22"/><polygon class="cls-31" points="357.52 261.4 357.25 240.83 358.31 240.44 358.58 261.01 357.52 261.4"/><polygon class="cls-31" points="354.2 253.11 354.05 242.01 355.12 241.62 355.26 252.72 354.2 253.11"/><path class="cls-19" d="M302.51,273.08,305.67,295c.55,3.83,1.13,7.74,2.9,11.18,2.16,4.2,1.86,9.35,5.58,12.26a88.56,88.56,0,0,0,11.58,7.94c5.18,2.86,10.78,4.85,16.12,7.39s10.53,5.75,14.1,10.47c-2.64,2.67-6.86,2.74-10.6,2.48-16.63-1.15-29-7.43-44.09-14.53-2.72-1.28-5.55-2.8-7-5.44a12.64,12.64,0,0,1-1.26-4.54,63.85,63.85,0,0,1-.35-8.53c.15-15.37,2.11-30.65,4.06-45.89.19-1.51.68-9.28,3.43-5.68C302,264.55,302.08,270.08,302.51,273.08Z" transform="translate(-10.76 -94.96)"/><path class="cls-26" d="M373,356l-4.39-8.1a4,4,0,0,0-3.28-2.06l-17-2.46-1.4,8.41c2.69-.22,10.36,3.33,13.09,4,2.93.75,8.06-1,7.63-2.6a18.76,18.76,0,0,1,2.44,3.61c1,2,2,3,3,3S374,358.16,373,356Z" transform="translate(-10.76 -94.96)"/><path class="cls-26" d="M349.15,343.53l-53.43-14.65a10.35,10.35,0,0,0-12.14,5.34l-.26.55c-2.78,6,1.39,12.74,8.24,13.42l56.35,3.55Z" transform="translate(-10.76 -94.96)"/><path class="cls-26" d="M277.73,262.17l3.35,70.36c.54,9.36,2.15,12.66,6.48,14.41l.54.22c5.85,2.37,11.58-4.28,11.33-13.15l-2-72.27Z" transform="translate(-10.76 -94.96)"/><path class="cls-5" d="M299.58,329.59l1.84-66.69-11.31-27.65c-.37-.07-15.77,8.6-15.23,33.71.32,15.24,2.92,47.39,4.62,67a13.85,13.85,0,0,0,11.64,12.48l8.44,1.33Z" transform="translate(-10.76 -94.96)"/><polygon class="cls-5" points="286.82 233.62 339.17 246.71 336.15 257.78 288.83 254.76 286.82 233.62"/><path class="cls-32" d="M346.18,196.66c-4.06,13.69-17.25,17.84-29.3,13.39s-16.19-14.64-12.8-28.53c3.78-15.44,17-20.06,30.79-16.19C353.93,170.68,350.63,181.7,346.18,196.66Z" transform="translate(-10.76 -94.96)"/><path class="cls-26" d="M340.45,232.67c-2.09,3.21-13.19,13.91-13.19,13.91s-24.24-11.36-27-13.73a35.18,35.18,0,0,0,8.86-9.08,34.38,34.38,0,0,0,5.45-21.35l2-11.76a21.77,21.77,0,0,1,12.35-5.36c8.94-.7,18.06,4.85,17.75,8.45-.2,2.24-4,1.4-8.67,6.76-1.55,1.79-3,5.22-4.2,10.34-.14.61-3.69,9.42,1,16.1A23.48,23.48,0,0,0,340.45,232.67Z" transform="translate(-10.76 -94.96)"/><path class="cls-19" d="M328,192.43c6.26-1.64,10.54.82,13.32,5.1a19,19,0,0,0-4.66,4.14c-1.59,1.94-2.92,5.5-3.78,10.71-.08.5-1.5,7.83.8,13.36-8-.67-17-8.5-17.54-16.22C315.59,200.54,320.18,194.5,328,192.43Z" transform="translate(-10.76 -94.96)"/><path class="cls-26" d="M317.92,194c-.53,3.38-1.22,8.06-4,8.15s-6.52-5.12-6.88-8.27c-.44-3.89,1.61-8,4.7-7.94C314.57,186,318.47,190.45,317.92,194Z" transform="translate(-10.76 -94.96)"/><path class="cls-26" d="M315.66,192.09c-4.32,12.66,3.37,28,13.49,29.85,9,1.64,14-6.17,17.05-18.42,3.52-13.9,3.27-28.2-9-29.31C328,173.39,320,179.51,315.66,192.09Z" transform="translate(-10.76 -94.96)"/><circle class="cls-22" cx="316.5" cy="97.71" r="1.91"/><circle class="cls-22" cx="333.2" cy="100.38" r="1.91"/><rect class="cls-22" x="342.19" y="186.66" width="7.25" height="3.59" rx="1.78" transform="matrix(0.99, 0.16, -0.16, 0.99, 23.34, -147.2)"/><rect class="cls-22" x="324.24" y="183.68" width="7.25" height="3.59" rx="1.78" transform="translate(22.64 -144.41) rotate(9.09)"/><path class="cls-19" d="M339.21,204.27c-1.51-1.52-3.66-6.84-3.66-6.84s-1.36,7.15-1.72,7.85C333.55,205.82,339.69,204.75,339.21,204.27Z" transform="translate(-10.76 -94.96)"/><path class="cls-19" d="M329.52,208.37c-.36.38,4.09,3.66,7.58,2.18" transform="translate(-10.76 -94.96)"/><path class="cls-32" d="M316.7,170.53c-5.64,3.37-15.18-.68-19.63-6.55s-2.35-14.49,3.68-18.32,14.63-2.13,18.15,4.44C322.77,157.32,322.25,167.21,316.7,170.53Z" transform="translate(-10.76 -94.96)"/></g></g></svg>